<svg width="44" height="40" fill="none" xmlns="http://www.w3.org/2000/svg"><path d="M42.94 9.641A20.85 20.85 0 0 0 40 8.39v24.677a20.115 20.115 0 0 0-7-1.272c-3.8 0-7.56 1.108-11 3.24v-24.82C18.76 8.308 15.02 7.18 11 7.18c-3.58 0-6.96.903-9.94 2.462C.4 9.969 0 10.687 0 11.446v24.78a2 2 0 0 0 2 2.03c.32 0 .64-.082.96-.246 2.42-1.292 5.14-2.113 8.04-2.113 4.14 0 7.96 1.683 11 4.103 3.04-2.42 6.86-4.103 11-4.103 2.9 0 5.62.821 8.04 2.134.32.164.64.246.96.246 1.04 0 2-.841 2-2.03v-24.8c0-.76-.4-1.478-1.06-1.806ZM18 33.067a20.115 20.115 0 0 0-7-1.272c-2.38 0-4.72.43-7 1.272V12.739a17.42 17.42 0 0 1 7-1.457c2.4 0 4.78.513 7 1.477v20.308ZM36 0 26 10.256v19.488l10-9.231V0Z" fill="#4F2EE8"/></svg>